# xmcd
#
# Track frame offsets: 
#        150
#        10961
#        23030
#        35596
#        47466
#        58579
#        69282
#        80467
#        91608
#        103424
#        114033
#        125381
#        135799
#        147184
#        158268
#        167442
#        176800
#        188644
#        200981
#        210573
#
# Disc length: 2929 seconds
#
# Revision: 0
# Processed by: cddbd v1.5.2PL0 Copyright (c) Steve Scherf et al.
# Submitted via: ExactAudioCopy v0.90b4
#
DISCID=f90b6f14
DTITLE=Faron Young - 60 Greatest Hits and Favorites [CD1]
DYEAR=2012
DGENRE=Country
TTITLE0=Tattle Tale Tears
TTITLE1=Goin' Steady
TTITLE2=Just Out Of Reach (Of My Two Open Arms)
TTITLE3=I Can't Wait (For The Sun To Go Down)
TTITLE4=Just Married
TTITLE5=Baby My Heart
TTITLE6=That's What I'd Do For You
TTITLE7=They Made Me Fall In Love With You
TTITLE8=If That's The Fashion
TTITLE9=If You Ain't Lovin' (You Ain't Livin')
TTITLE10=A Place For Girls Like You
TTITLE11=Live Fast, Love Hard, Die Young
TTITLE12=Forgive Me, Dear
TTITLE13=All Right
TTITLE14=Go Back You Fool
TTITLE15=It's A Great Life (If You Don't Weaken)
TTITLE16=For The Love Of A Woman Like You
TTITLE17=You're Still Mine
TTITLE18=I've Got Five Dollars And It's Saturday
TTITLE19=Turn Her Down
EXTD=
EXTT0=
EXTT1=
EXTT2=
EXTT3=
EXTT4=
EXTT5=
EXTT6=
EXTT7=
EXTT8=
EXTT9=
EXTT10=
EXTT11=
EXTT12=
EXTT13=
EXTT14=
EXTT15=
EXTT16=
EXTT17=
EXTT18=
EXTT19=
PLAYORDER=
